<svg width="251" height="82" viewBox="0 0 251 82" fill="none" xmlns="http://www.w3.org/2000/svg">
<mask id="mask0_23_547" style="mask-type:luminance" maskUnits="userSpaceOnUse" x="10" y="0" width="75" height="75">
<path d="M10.0439 0.469788H84.0439V74.4698H10.0439V0.469788Z" fill="white"/>
</mask>
<g mask="url(#mask0_23_547)">
<path d="M84.0478 37.4717C84.0478 38.0768 84.0324 38.6819 84.0015 39.287C83.9726 39.8921 83.9283 40.4953 83.8686 41.0985C83.8088 41.7017 83.7356 42.3029 83.647 42.9022C83.5583 43.4996 83.4543 44.097 83.3367 44.6906C83.2172 45.2841 83.0862 45.8757 82.9378 46.4635C82.7913 47.0493 82.6295 47.6332 82.4541 48.2133C82.2787 48.7933 82.088 49.3676 81.8837 49.938C81.6794 50.5084 81.4616 51.0731 81.2304 51.6319C80.9992 52.1908 80.7525 52.7458 80.4943 53.2931C80.236 53.8404 79.9643 54.3799 79.6772 54.9137C79.392 55.4475 79.0933 55.9756 78.783 56.4939C78.4708 57.0143 78.1471 57.5249 77.8118 58.0298C77.4745 58.5328 77.1257 59.0281 76.7654 59.5137C76.405 59.9993 76.0331 60.4772 75.6476 60.9455C75.2642 61.4138 74.8691 61.8724 74.4625 62.3214C74.0559 62.7685 73.6377 63.2079 73.2099 63.6357C72.7821 64.0635 72.3427 64.4817 71.8937 64.8883C71.4447 65.2949 70.988 65.69 70.5197 66.0754C70.0514 66.4589 69.5735 66.8308 69.0878 67.1912C68.6003 67.5535 68.105 67.9004 67.6021 68.2376C67.0991 68.5748 66.5884 68.8986 66.0681 69.2088C65.5478 69.521 65.0217 69.8197 64.4879 70.1049C63.9541 70.3901 63.4126 70.6619 62.8653 70.9201C62.318 71.1803 61.7649 71.425 61.2061 71.6562C60.6453 71.8894 60.0807 72.1072 59.5102 72.3114C58.9418 72.5138 58.3656 72.7046 57.7874 72.8799C57.2074 73.0553 56.6235 73.2172 56.0357 73.3656C55.448 73.512 54.8583 73.645 54.2647 73.7625C53.6712 73.8801 53.0738 73.9842 52.4745 74.0728C51.8751 74.1614 51.2758 74.2366 50.6726 74.2944C50.0695 74.3542 49.4663 74.3985 48.8612 74.4293C48.2561 74.4582 47.651 74.4736 47.0459 74.4736C46.4408 74.4736 45.8357 74.4582 45.2306 74.4293C44.6255 74.3985 44.0223 74.3542 43.4191 74.2944C42.8159 74.2366 42.2147 74.1614 41.6173 74.0728C41.018 73.9842 40.4206 73.8801 39.827 73.7625C39.2335 73.645 38.6419 73.512 38.0541 73.3656C37.4683 73.2172 36.8844 73.0553 36.3043 72.8799C35.7243 72.7046 35.15 72.5138 34.5796 72.3114C34.0092 72.1072 33.4445 71.8894 32.8857 71.6562C32.3268 71.425 31.7737 71.1803 31.2245 70.9201C30.6772 70.6619 30.1376 70.3901 29.6038 70.1049C29.07 69.8197 28.542 69.521 28.0236 69.2088C27.5033 68.8986 26.9926 68.5748 26.4897 68.2376C25.9848 67.9004 25.4895 67.5535 25.0039 67.1912C24.5183 66.8308 24.0404 66.4589 23.5721 66.0754C23.1038 65.69 22.6451 65.2949 22.1961 64.8883C21.749 64.4817 21.3097 64.0635 20.8819 63.6357C20.454 63.2079 20.0359 62.7685 19.6293 62.3214C19.2226 61.8724 18.8276 61.4138 18.4422 60.9455C18.0587 60.4772 17.6868 59.9993 17.3264 59.5137C16.9641 59.0281 16.6172 58.5328 16.28 58.0298C15.9427 57.5249 15.619 57.0143 15.3087 56.4939C14.9965 55.9756 14.6979 55.4475 14.4126 54.9137C14.1274 54.3799 13.8557 53.8404 13.5975 53.2931C13.3373 52.7458 13.0926 52.1908 12.8613 51.6319C12.6282 51.0731 12.4104 50.5084 12.2081 49.938C12.0038 49.3676 11.813 48.7933 11.6376 48.2133C11.4623 47.6332 11.3004 47.0493 11.1539 46.4635C11.0056 45.8757 10.8726 45.2841 10.755 44.6906C10.6375 44.097 10.5334 43.4996 10.4448 42.9022C10.3561 42.3029 10.281 41.7017 10.2232 41.0985C10.1634 40.4953 10.1191 39.8921 10.0883 39.287C10.0594 38.6819 10.0439 38.0768 10.0439 37.4717C10.0439 36.8666 10.0594 36.2615 10.0883 35.6564C10.1191 35.0513 10.1634 34.4481 10.2232 33.8449C10.281 33.2418 10.3561 32.6424 10.4448 32.0431C10.5334 31.4438 10.6375 30.8483 10.755 30.2529C10.8726 29.6593 11.0056 29.0696 11.1539 28.4819C11.3004 27.8941 11.4623 27.3102 11.6376 26.7321C11.813 26.152 12.0038 25.5778 12.2081 25.0073C12.4104 24.4369 12.6282 23.8723 12.8613 23.3115C13.0926 22.7526 13.3373 22.1996 13.5975 21.6523C13.8557 21.105 14.1274 20.5635 14.4126 20.0297C14.6979 19.4959 14.9965 18.9698 15.3087 18.4495C15.619 17.9311 15.9427 17.4185 16.28 16.9155C16.6172 16.4125 16.9641 15.9173 17.3264 15.4297C17.6868 14.9441 18.0587 14.4662 18.4422 13.9979C18.8276 13.5296 19.2226 13.0729 19.6293 12.6239C20.0359 12.1749 20.454 11.7355 20.8819 11.3077C21.3097 10.8799 21.749 10.4617 22.1961 10.0551C22.6451 9.64848 23.1038 9.25343 23.5721 8.86994C24.0404 8.48453 24.5183 8.1126 25.0039 7.75223C25.4895 7.39187 25.9848 7.04307 26.4897 6.70583C26.9926 6.37052 27.5033 6.04677 28.0236 5.73458C28.542 5.42432 29.07 5.12562 29.6038 4.84041C30.1376 4.5552 30.6772 4.28156 31.2245 4.02333C31.7737 3.7651 32.3268 3.51843 32.8857 3.28718C33.4445 3.05593 34.0092 2.83817 34.5796 2.6339C35.15 2.42963 35.7243 2.23885 36.3043 2.06349C36.8844 1.88812 37.4683 1.72625 38.0541 1.57979C38.6419 1.43333 39.2335 1.30036 39.827 1.18088C40.4206 1.06333 41.018 0.959267 41.6173 0.870621C42.2147 0.781975 42.8159 0.708746 43.4191 0.649006C44.0223 0.589267 44.6255 0.544944 45.2306 0.516038C45.8357 0.485204 46.4408 0.469788 47.0459 0.469788C47.651 0.469788 48.2561 0.485204 48.8612 0.516038C49.4663 0.544944 50.0695 0.589267 50.6726 0.649006C51.2758 0.708746 51.8751 0.781975 52.4745 0.870621C53.0738 0.959267 53.6712 1.06333 54.2647 1.18088C54.8583 1.30036 55.448 1.43333 56.0357 1.57979C56.6235 1.72625 57.2074 1.88812 57.7874 2.06349C58.3656 2.23885 58.9418 2.42963 59.5102 2.6339C60.0807 2.83817 60.6453 3.05593 61.2061 3.28718C61.7649 3.51843 62.318 3.7651 62.8653 4.02333C63.4126 4.28156 63.9541 4.5552 64.4879 4.84041C65.0217 5.12562 65.5478 5.42432 66.0681 5.73458C66.5884 6.04677 67.0991 6.37052 67.6021 6.70583C68.105 7.04307 68.6003 7.39187 69.0878 7.75223C69.5735 8.1126 70.0514 8.48453 70.5197 8.86994C70.988 9.25343 71.4447 9.64848 71.8937 10.0551C72.3427 10.4617 72.7821 10.8799 73.2099 11.3077C73.6377 11.7355 74.0559 12.1749 74.4625 12.6239C74.8691 13.0729 75.2642 13.5296 75.6476 13.9979C76.0331 14.4662 76.405 14.9441 76.7654 15.4297C77.1257 15.9173 77.4745 16.4125 77.8118 16.9155C78.1471 17.4185 78.4708 17.9311 78.783 18.4495C79.0933 18.9698 79.392 19.4959 79.6772 20.0297C79.9643 20.5635 80.236 21.105 80.4943 21.6523C80.7525 22.1996 80.9992 22.7526 81.2304 23.3115C81.4616 23.8723 81.6794 24.4369 81.8837 25.0073C82.088 25.5778 82.2787 26.152 82.4541 26.7321C82.6295 27.3102 82.7913 27.8941 82.9378 28.4819C83.0862 29.0696 83.2172 29.6593 83.3367 30.2529C83.4543 30.8483 83.5583 31.4438 83.647 32.0431C83.7356 32.6424 83.8088 33.2418 83.8686 33.8449C83.9283 34.4481 83.9726 35.0513 84.0015 35.6564C84.0324 36.2615 84.0478 36.8666 84.0478 37.4717Z" fill="#1B345C"/>
</g>
<path d="M80.386 37.4694C80.386 38.0148 80.3725 38.5601 80.3455 39.1055C80.3185 39.6509 80.28 40.1943 80.226 40.7377C80.1721 41.2812 80.1046 41.8227 80.0256 42.3623C79.9447 42.9019 79.8522 43.4395 79.7462 43.9753C79.6383 44.511 79.5188 45.0429 79.3877 45.5709C79.2548 46.1008 79.1083 46.6269 78.9503 47.1492C78.7923 47.6714 78.6208 48.1898 78.4377 48.7024C78.2527 49.2169 78.0561 49.7257 77.848 50.2306C77.6399 50.7335 77.4183 51.2326 77.1851 51.726C76.9519 52.2193 76.7072 52.7069 76.4489 53.1886C76.1926 53.6685 75.9228 54.1445 75.6415 54.6108C75.3621 55.0791 75.0691 55.5397 74.7666 55.9945C74.464 56.4473 74.1499 56.8944 73.8243 57.3319C73.4986 57.7712 73.1633 58.201 72.8183 58.623C72.4714 59.045 72.1149 59.4574 71.7488 59.8621C71.3826 60.2668 71.0069 60.6619 70.6195 61.0473C70.2341 61.4327 69.839 61.8085 69.4344 62.1746C69.0316 62.5427 68.6173 62.8973 68.1952 63.2442C67.7732 63.591 67.3435 63.9263 66.906 64.252C66.4666 64.5758 66.0215 64.8899 65.5667 65.1944C65.1138 65.4969 64.6533 65.7879 64.185 66.0693C63.7167 66.3506 63.2426 66.6185 62.7609 66.8767C62.2791 67.133 61.7915 67.3778 61.3001 67.6109C60.8068 67.8441 60.3077 68.0657 59.8028 68.2758C59.2998 68.4839 58.7891 68.6805 58.2765 68.8635C57.762 69.0485 57.2436 69.2181 56.7214 69.3781C56.1991 69.5361 55.675 69.6806 55.145 69.8136C54.6151 69.9466 54.0832 70.066 53.5475 70.172C53.0137 70.278 52.476 70.3724 51.9364 70.4514C51.3969 70.5324 50.8553 70.5979 50.3119 70.6519C49.7685 70.7058 49.225 70.7463 48.6797 70.7733C48.1343 70.8003 47.5889 70.8137 47.0436 70.8137C46.4982 70.8137 45.9528 70.8003 45.4075 70.7733C44.8621 70.7463 44.3187 70.7058 43.7752 70.6519C43.2318 70.5979 42.6903 70.5324 42.1507 70.4514C41.6111 70.3724 41.0735 70.278 40.5377 70.172C40.0039 70.066 39.4701 69.9466 38.9421 69.8136C38.4122 69.6806 37.8861 69.5361 37.3638 69.3781C36.8416 69.2181 36.3251 69.0485 35.8106 68.8635C35.2961 68.6805 34.7873 68.4839 34.2844 68.2758C33.7795 68.0657 33.2803 67.8441 32.787 67.6109C32.2937 67.3778 31.8061 67.133 31.3263 66.8767C30.8445 66.6185 30.3704 66.3506 29.9022 66.0693C29.4339 65.7879 28.9733 65.4969 28.5185 65.1944C28.0657 64.8899 27.6186 64.5758 27.1811 64.252C26.7417 63.9263 26.312 63.591 25.89 63.2442C25.4699 62.8973 25.0555 62.5427 24.6509 62.1746C24.2481 61.8085 23.853 61.4327 23.4657 61.0473C23.0803 60.6619 22.7045 60.2668 22.3384 59.8621C21.9722 59.4574 21.6157 59.045 21.2688 58.623C20.922 58.201 20.5866 57.7712 20.2629 57.3319C19.9372 56.8944 19.6231 56.4473 19.3205 55.9945C19.0161 55.5397 18.7251 55.0791 18.4437 54.6108C18.1643 54.1445 17.8945 53.6685 17.6382 53.1886C17.38 52.7069 17.1352 52.2193 16.9021 51.726C16.6689 51.2326 16.4473 50.7335 16.2391 50.2306C16.0291 49.7257 15.8325 49.2169 15.6495 48.7024C15.4664 48.1898 15.2949 47.6714 15.1368 47.1492C14.9769 46.6269 14.8324 46.1008 14.6994 45.5709C14.5664 45.0429 14.447 44.511 14.341 43.9753C14.235 43.4395 14.1405 42.9019 14.0615 42.3623C13.9806 41.8227 13.9151 41.2812 13.8611 40.7377C13.8072 40.1943 13.7667 39.6509 13.7397 39.1055C13.7147 38.5601 13.7012 38.0148 13.7012 37.4694C13.7012 36.924 13.7147 36.3787 13.7397 35.8333C13.7667 35.2899 13.8072 34.7445 13.8611 34.2011C13.9151 33.6596 13.9806 33.1181 14.0615 32.5785C14.1405 32.037 14.235 31.5012 14.341 30.9655C14.447 30.4298 14.5664 29.8979 14.6994 29.368C14.8324 28.8399 14.9769 28.3138 15.1368 27.7916C15.2949 27.2694 15.4664 26.751 15.6495 26.2364C15.8325 25.7238 16.0291 25.2151 16.2391 24.7102C16.4473 24.2053 16.6689 23.7081 16.9021 23.2148C17.1352 22.7214 17.38 22.2339 17.6382 21.7521C17.8945 21.2703 18.1643 20.7963 18.4437 20.328C18.7251 19.8597 19.0161 19.3992 19.3205 18.9463C19.6231 18.4915 19.9372 18.0463 20.2629 17.607C20.5866 17.1695 20.922 16.7398 21.2688 16.3177C21.6157 15.8957 21.9722 15.4833 22.3384 15.0786C22.7045 14.6739 23.0803 14.2789 23.4657 13.8935C23.853 13.5081 24.2481 13.1303 24.6509 12.7642C25.0555 12.3981 25.4699 12.0415 25.89 11.6966C26.312 11.3497 26.7417 11.0144 27.1811 10.6887C27.6186 10.3631 28.0657 10.0489 28.5185 9.74639C28.9733 9.44384 29.4339 9.15092 29.9022 8.87149C30.3704 8.59014 30.8445 8.32228 31.3263 8.06405C31.8061 7.80774 32.2937 7.56108 32.787 7.3279C33.2803 7.09472 33.7795 6.87504 34.2844 6.66498C34.7873 6.45686 35.2961 6.2603 35.8106 6.07722C36.3251 5.89222 36.8416 5.72071 37.3638 5.56269C37.8861 5.40467 38.4122 5.25821 38.9421 5.12717C39.4701 4.9942 40.0039 4.87472 40.5377 4.76873C41.0735 4.66082 41.6111 4.56832 42.1507 4.48738C42.6903 4.40837 43.2318 4.34092 43.7752 4.28696C44.3187 4.23493 44.8621 4.19446 45.4075 4.16748C45.9528 4.1405 46.4982 4.12701 47.0436 4.12701C47.5889 4.12701 48.1343 4.1405 48.6797 4.16748C49.225 4.19446 49.7685 4.23493 50.3119 4.28696C50.8553 4.34092 51.3969 4.40837 51.9364 4.48738C52.476 4.56832 53.0137 4.66082 53.5475 4.76873C54.0832 4.87472 54.6151 4.9942 55.145 5.12717C55.675 5.25821 56.1991 5.40467 56.7214 5.56269C57.2436 5.72071 57.762 5.89222 58.2765 6.07722C58.7891 6.2603 59.2998 6.45686 59.8028 6.66498C60.3077 6.87504 60.8068 7.09472 61.3001 7.3279C61.7915 7.56108 62.2791 7.80774 62.7609 8.06405C63.2426 8.32228 63.7167 8.59014 64.185 8.87149C64.6533 9.15092 65.1138 9.44384 65.5667 9.74639C66.0215 10.0489 66.4666 10.3631 66.906 10.6887C67.3435 11.0144 67.7732 11.3497 68.1952 11.6966C68.6173 12.0415 69.0316 12.3981 69.4344 12.7642C69.839 13.1303 70.2341 13.5081 70.6195 13.8935C71.0069 14.2789 71.3826 14.6739 71.7488 15.0786C72.1149 15.4833 72.4714 15.8957 72.8183 16.3177C73.1633 16.7398 73.4986 17.1695 73.8243 17.607C74.1499 18.0463 74.464 18.4915 74.7666 18.9463C75.0691 19.3992 75.3621 19.8597 75.6415 20.328C75.9228 20.7963 76.1926 21.2703 76.4489 21.7521C76.7072 22.2339 76.9519 22.7214 77.1851 23.2148C77.4183 23.7081 77.6399 24.2053 77.848 24.7102C78.0561 25.2151 78.2527 25.7238 78.4377 26.2364C78.6208 26.751 78.7923 27.2694 78.9503 27.7916C79.1083 28.3138 79.2548 28.8399 79.3877 29.368C79.5188 29.8979 79.6383 30.4298 79.7462 30.9655C79.8522 31.5012 79.9447 32.037 80.0256 32.5785C80.1046 33.1181 80.1721 33.6596 80.226 34.2011C80.28 34.7445 80.3185 35.2899 80.3455 35.8333C80.3725 36.3787 80.386 36.924 80.386 37.4694Z" fill="#F1F0F0"/>
<path fill-rule="evenodd" clip-rule="evenodd" d="M29.6308 28.7652L16.4225 36.3309C16.409 36.7105 16.3994 37.0902 16.3994 37.4717C16.3994 47.9204 21.6295 57.1453 29.6134 62.678L29.6308 28.7652ZM63.2892 26.7321L63.3335 11.5062C58.6141 8.54043 53.0313 6.82339 47.0478 6.82339C42.3476 6.82339 37.8941 7.88329 33.9127 9.77376L63.2892 26.7321ZM30.8063 48.2114L30.762 63.4372C35.4795 66.403 41.0622 68.1201 47.0478 68.1201C51.7479 68.1201 56.1995 67.0602 60.1808 65.1697L30.8063 48.2114ZM45.853 18.0371L16.4977 35.0185C17.3437 24.3271 23.678 15.1831 32.6813 10.3962L45.853 18.0371ZM48.2425 56.9064L77.5978 39.9268C76.7499 50.6164 70.4175 59.7623 61.4142 64.5492L48.2425 56.9064ZM64.4628 46.1783L77.673 38.6145C77.6865 38.2349 77.6961 37.8552 77.6961 37.4717C77.6961 27.0231 72.466 17.7981 64.4821 12.2655L64.4628 46.1783Z" fill="#1B345C"/>
<path fill-rule="evenodd" clip-rule="evenodd" d="M42.8693 23.1049C50.8012 20.7982 59.1088 25.3577 61.4155 33.2934C63.7242 41.2253 59.1609 49.5291 51.227 51.8396C43.2913 54.1444 34.9875 49.5849 32.6808 41.6492C30.3741 33.7135 34.9355 25.4116 42.8693 23.1049Z" fill="#1B345C"/>
<path fill-rule="evenodd" clip-rule="evenodd" d="M36.9068 34.3473C36.8759 35.0469 36.2959 35.6019 35.5906 35.5961C34.8698 35.5922 34.2262 34.9756 34.2917 34.2375C34.5846 30.9383 37.1746 27.9302 40.0556 26.4771C40.7147 26.1437 41.5163 26.4791 41.8035 27.1439C42.0887 27.7991 41.7784 28.5372 41.1521 28.8532C39.2694 29.8071 37.323 32.2603 36.9068 34.3473Z" fill="#F1F0F0"/>
<path d="M45.6087 25.7527C45.6087 25.928 45.576 26.0976 45.5085 26.2595C45.4411 26.4214 45.3466 26.5659 45.2214 26.6892C45.098 26.8145 44.9535 26.9089 44.7916 26.9763C44.6298 27.0438 44.4602 27.0785 44.2848 27.0785C44.1075 27.0785 43.9399 27.0438 43.7761 26.9763C43.6142 26.9089 43.4716 26.8145 43.3463 26.6892C43.223 26.5659 43.1266 26.4214 43.0592 26.2595C42.9917 26.0976 42.959 25.928 42.959 25.7527C42.959 25.5773 42.9917 25.4077 43.0592 25.2458C43.1266 25.082 43.223 24.9394 43.3463 24.8161C43.4716 24.6908 43.6142 24.5945 43.7761 24.529C43.9399 24.4615 44.1075 24.4268 44.2848 24.4268C44.4602 24.4268 44.6298 24.4615 44.7916 24.529C44.9535 24.5945 45.098 24.6908 45.2214 24.8161C45.3466 24.9394 45.4411 25.082 45.5085 25.2458C45.576 25.4077 45.6087 25.5773 45.6087 25.7527Z" fill="#F1F0F0"/>
<path d="M119.999 6.771L118.941 6.87174L116.423 13.5966C115.037 17.299 111.058 27.9026 107.557 37.1965C104.056 46.4652 101.134 54.2731 101.059 54.525C100.958 54.928 101.26 54.9532 105.668 54.9028L110.378 54.8272L112.619 48.5305C113.828 45.0548 114.836 42.0828 114.861 41.9064C114.861 41.6546 116.775 41.6042 123.953 41.6546L133.071 41.7301L135.388 48.2787L137.705 54.8272L142.415 54.9028C144.984 54.928 147.1 54.9028 147.1 54.8524C147.1 54.7769 134.053 19.9688 129.52 7.95477L129.142 6.92212L127.48 6.74581C125.792 6.59469 121.863 6.59469 119.999 6.771ZM124.558 18.105C124.986 19.5407 127.48 26.5929 129.948 33.3933C130.653 35.3075 131.232 36.9195 131.232 36.9699C131.232 37.0202 127.983 37.0706 124.029 37.0706H116.851L117.002 36.4913C117.103 36.1891 118.437 32.4866 119.949 28.2553C121.46 24.0239 122.996 19.6918 123.324 18.6087C123.676 17.5509 124.004 16.6694 124.054 16.6694C124.104 16.6694 124.331 17.3242 124.558 18.105Z" fill="#1B345C"/>
<path d="M189.488 21.5815C187.851 22.0348 186.364 22.7653 184.828 23.8987L183.619 24.7802V23.9238C183.619 21.8837 183.795 21.9593 179.186 21.9593H175.056V38.4566V54.9539H179.715H184.375V43.1665V31.4043L185.836 29.7168C188.279 26.8203 190.898 25.3091 193.039 25.5358C194.449 25.7121 195.306 26.3418 196.011 27.7522C196.59 28.8856 196.59 28.9612 196.666 41.9071L196.741 54.9287L201.3 55.0042C204.449 55.0546 205.884 55.0042 205.96 54.8027C206.01 54.6516 206.035 48.7076 205.985 41.5797C205.909 28.9108 205.909 28.6086 205.355 27.2737C204.222 24.5031 202.585 22.9164 199.789 21.8837C197.9 21.1785 191.553 21.0022 189.488 21.5815Z" fill="#1B345C"/>
<path d="M216.696 21.5791C214.807 21.8813 209.568 23.1155 209.367 23.317C209.291 23.4177 211.029 26.9942 211.155 26.9942C211.18 26.9942 211.608 26.8935 212.087 26.7424C212.691 26.566 212.994 26.5912 213.12 26.7675C213.246 26.969 213.674 26.9438 214.631 26.6668C217.653 25.8104 220.273 25.4326 222.439 25.5334C224.328 25.609 224.806 25.7349 225.839 26.3897C227.652 27.498 228.257 28.858 228.408 32.1323L228.509 34.7265L223.774 34.8777C217.2 35.1043 213.699 35.9355 210.752 37.9252C207.755 39.9402 206.319 43.1893 206.773 46.8413C207.327 51.2994 209.946 54.1203 214.606 55.3293C215.915 55.6819 217.099 55.7322 220.525 55.6567C224.68 55.5559 224.857 55.5307 226.695 54.75C227.728 54.2966 228.912 53.6669 229.34 53.3395L230.095 52.735L231.204 53.7173C232.463 54.8255 235.259 55.833 236.568 55.6567C236.997 55.5811 237.727 55.6063 238.18 55.7071C238.986 55.8834 238.986 55.8834 239.742 54.0951L240.498 52.3069L239.666 51.8787C239.213 51.6268 238.558 51.0727 238.231 50.6193L237.652 49.7882L237.526 39.2098L237.4 28.6314L236.669 27.0446C235.36 24.1985 232.539 22.2339 228.811 21.5791C226.343 21.1257 219.542 21.1257 216.696 21.5791ZM228.458 42.5848V46.5895L227.501 47.8236C226.066 49.6371 224.882 50.5438 223.245 51.1735C221.582 51.8031 220.424 51.7527 218.938 50.9971C216.192 49.5615 215.286 44.776 217.225 41.9047C218.761 39.6379 221.331 38.6305 225.763 38.6053L228.458 38.5801V42.5848Z" fill="#1B345C"/>
<path d="M137.904 21.9855C137.829 22.187 138.408 24.0508 139.163 26.1161C139.944 28.2066 140.952 30.9771 141.43 32.2868C141.884 33.5966 143.42 37.8027 144.83 41.6059C146.241 45.4091 147.878 49.8924 148.457 51.5547C149.062 53.217 149.792 54.9801 150.094 55.4586C151.958 58.5314 148.684 62.2842 142.841 63.745C141.682 64.0221 140.675 64.3243 140.599 64.3999C140.524 64.4755 140.599 65.1051 140.75 65.8103C140.926 66.5156 141.052 67.3467 141.052 67.6994C141.052 68.2535 141.153 68.3038 142.362 68.3038C146.996 68.3038 152.739 66.1126 155.862 63.1657C158.381 60.7982 159.615 58.5314 162.033 52.0584C167.221 38.105 173.04 22.1114 172.939 22.0359C172.813 21.9099 163.947 21.8847 163.846 22.0107C163.821 22.0611 162.008 27.6273 159.817 34.4277C157.625 41.2029 155.761 46.9203 155.661 47.0966C155.459 47.4996 155.283 47.0211 150.623 32.9165C148.659 26.9473 147.022 22.0611 146.971 22.0107C146.946 21.9855 144.931 21.8847 142.488 21.784C138.786 21.6581 138.005 21.7084 137.904 21.9855Z" fill="#1B345C"/>
<path d="M211.446 27.6352L211.164 26.931L210.561 25.7084L213.805 24.7656L214.279 26.6521L211.446 27.6352Z" fill="#1B345C" stroke="#1B345C" stroke-width="0.1" stroke-linecap="round"/>
<path d="M238.562 56.374L235.173 55.441C235.42 55.2412 235.901 54.9143 235.942 54.9143C235.995 54.9143 237.285 54.6797 237.441 54.6797C237.566 54.6797 238.713 54.7787 239.295 54.857L238.562 56.374Z" fill="#1B345C" stroke="#1B345C" stroke-width="0.1" stroke-linecap="round"/>
<path d="M105.238 76.3321V79.003H106.82C107.351 79.003 107.743 78.8939 107.997 78.6758C108.254 78.4545 108.383 78.1176 108.383 77.6651C108.383 77.2094 108.254 76.8741 107.997 76.6592C107.743 76.4411 107.351 76.3321 106.82 76.3321H105.238ZM105.238 73.334V75.5313H106.698C107.18 75.5313 107.538 75.4418 107.772 75.2628C108.01 75.0805 108.129 74.8038 108.129 74.4327C108.129 74.0648 108.01 73.7898 107.772 73.6075C107.538 73.4252 107.18 73.334 106.698 73.334H105.238ZM104.252 72.5235H106.771C107.523 72.5235 108.103 72.6797 108.51 72.9922C108.917 73.3047 109.12 73.7491 109.12 74.3253C109.12 74.7712 109.016 75.126 108.808 75.3897C108.599 75.6534 108.293 75.8178 107.89 75.8829C108.375 75.987 108.751 76.2051 109.018 76.5372C109.288 76.8659 109.423 77.2777 109.423 77.7725C109.423 78.4236 109.201 78.9265 108.759 79.2813C108.316 79.6361 107.686 79.8135 106.869 79.8135H104.252V72.5235ZM114.847 75.1846C114.746 75.126 114.635 75.0837 114.515 75.0577C114.398 75.0284 114.268 75.0137 114.124 75.0137C113.617 75.0137 113.226 75.1797 112.953 75.5118C112.682 75.8406 112.547 76.3142 112.547 76.9327V79.8135H111.644V74.3448H112.547V75.1944C112.736 74.8624 112.982 74.6166 113.285 74.4571C113.587 74.2943 113.955 74.213 114.388 74.213C114.45 74.213 114.518 74.2178 114.593 74.2276C114.668 74.2341 114.751 74.2455 114.842 74.2618L114.847 75.1846ZM116.389 74.3448H117.288V79.8135H116.389V74.3448ZM116.389 72.2159H117.288V73.3536H116.389V72.2159ZM124.319 76.5128V79.8135H123.42V76.5421C123.42 76.0245 123.319 75.6371 123.117 75.3799C122.916 75.1228 122.613 74.9942 122.209 74.9942C121.724 74.9942 121.342 75.1488 121.062 75.4581C120.782 75.7673 120.642 76.1889 120.642 76.7227V79.8135H119.738V74.3448H120.642V75.1944C120.857 74.8656 121.109 74.6199 121.399 74.4571C121.692 74.2943 122.029 74.213 122.409 74.213C123.038 74.213 123.513 74.4083 123.835 74.7989C124.157 75.1863 124.319 75.7575 124.319 76.5128ZM130.309 77.0157C130.309 76.3646 130.174 75.8601 129.904 75.502C129.637 75.1439 129.261 74.9649 128.776 74.9649C128.294 74.9649 127.918 75.1439 127.648 75.502C127.381 75.8601 127.248 76.3646 127.248 77.0157C127.248 77.6635 127.381 78.1664 127.648 78.5245C127.918 78.8825 128.294 79.0616 128.776 79.0616C129.261 79.0616 129.637 78.8825 129.904 78.5245C130.174 78.1664 130.309 77.6635 130.309 77.0157ZM131.208 79.1348C131.208 80.0658 131.001 80.7575 130.587 81.21C130.174 81.6658 129.541 81.8936 128.688 81.8936C128.372 81.8936 128.074 81.8692 127.795 81.8204C127.515 81.7748 127.243 81.7032 126.979 81.6055V80.7315C127.243 80.8747 127.503 80.9805 127.76 81.0489C128.018 81.1172 128.28 81.1514 128.546 81.1514C129.136 81.1514 129.577 80.9968 129.87 80.6876C130.163 80.3816 130.309 79.9177 130.309 79.296V78.8516C130.124 79.1739 129.886 79.4148 129.596 79.5743C129.307 79.7338 128.96 79.8135 128.556 79.8135C127.886 79.8135 127.345 79.558 126.935 79.0469C126.525 78.5359 126.32 77.8588 126.32 77.0157C126.32 76.1693 126.525 75.4906 126.935 74.9796C127.345 74.4685 127.886 74.213 128.556 74.213C128.96 74.213 129.307 74.2927 129.596 74.4522C129.886 74.6117 130.124 74.8526 130.309 75.1749V74.3448H131.208V79.1348ZM133.658 74.3448H134.557V79.8135H133.658V74.3448ZM133.658 72.2159H134.557V73.3536H133.658V72.2159ZM141.587 76.5128V79.8135H140.689V76.5421C140.689 76.0245 140.588 75.6371 140.386 75.3799C140.184 75.1228 139.882 74.9942 139.478 74.9942C138.993 74.9942 138.61 75.1488 138.33 75.4581C138.051 75.7673 137.911 76.1889 137.911 76.7227V79.8135H137.007V74.3448H137.911V75.1944C138.125 74.8656 138.378 74.6199 138.667 74.4571C138.96 74.2943 139.297 74.213 139.678 74.213C140.306 74.213 140.782 74.4083 141.104 74.7989C141.426 75.1863 141.587 75.7575 141.587 76.5128ZM147.578 77.0157C147.578 76.3646 147.443 75.8601 147.173 75.502C146.906 75.1439 146.53 74.9649 146.045 74.9649C145.563 74.9649 145.187 75.1439 144.917 75.502C144.65 75.8601 144.516 76.3646 144.516 77.0157C144.516 77.6635 144.65 78.1664 144.917 78.5245C145.187 78.8825 145.563 79.0616 146.045 79.0616C146.53 79.0616 146.906 78.8825 147.173 78.5245C147.443 78.1664 147.578 77.6635 147.578 77.0157ZM148.476 79.1348C148.476 80.0658 148.27 80.7575 147.856 81.21C147.443 81.6658 146.81 81.8936 145.957 81.8936C145.641 81.8936 145.343 81.8692 145.063 81.8204C144.783 81.7748 144.512 81.7032 144.248 81.6055V80.7315C144.512 80.8747 144.772 80.9805 145.029 81.0489C145.286 81.1172 145.548 81.1514 145.815 81.1514C146.404 81.1514 146.846 80.9968 147.138 80.6876C147.431 80.3816 147.578 79.9177 147.578 79.296V78.8516C147.392 79.1739 147.155 79.4148 146.865 79.5743C146.575 79.7338 146.229 79.8135 145.825 79.8135C145.154 79.8135 144.614 79.558 144.204 79.0469C143.794 78.5359 143.589 77.8588 143.589 77.0157C143.589 76.1693 143.794 75.4906 144.204 74.9796C144.614 74.4685 145.154 74.213 145.825 74.213C146.229 74.213 146.575 74.2927 146.865 74.4522C147.155 74.6117 147.392 74.8526 147.578 75.1749V74.3448H148.476V79.1348ZM155.58 78.9932V81.8936H154.676V74.3448H155.58V75.1749C155.768 74.8493 156.006 74.6085 156.293 74.4522C156.582 74.2927 156.927 74.213 157.328 74.213C157.992 74.213 158.531 74.4766 158.944 75.004C159.361 75.5313 159.569 76.2247 159.569 77.084C159.569 77.9434 159.361 78.6368 158.944 79.1641C158.531 79.6915 157.992 79.9551 157.328 79.9551C156.927 79.9551 156.582 79.877 156.293 79.7208C156.006 79.5613 155.768 79.3187 155.58 78.9932ZM158.636 77.084C158.636 76.4232 158.5 75.9057 158.226 75.5313C157.956 75.1537 157.583 74.9649 157.108 74.9649C156.633 74.9649 156.258 75.1537 155.985 75.5313C155.715 75.9057 155.58 76.4232 155.58 77.084C155.58 77.7449 155.715 78.2641 155.985 78.6417C156.258 79.016 156.633 79.2032 157.108 79.2032C157.583 79.2032 157.956 79.016 158.226 78.6417C158.5 78.2641 158.636 77.7449 158.636 77.084ZM164.827 75.1846C164.726 75.126 164.616 75.0837 164.495 75.0577C164.378 75.0284 164.248 75.0137 164.104 75.0137C163.597 75.0137 163.206 75.1797 162.933 75.5118C162.662 75.8406 162.527 76.3142 162.527 76.9327V79.8135H161.624V74.3448H162.527V75.1944C162.716 74.8624 162.962 74.6166 163.265 74.4571C163.567 74.2943 163.935 74.213 164.368 74.213C164.43 74.213 164.498 74.2178 164.573 74.2276C164.648 74.2341 164.731 74.2455 164.822 74.2618L164.827 75.1846ZM168.264 74.9747C167.782 74.9747 167.401 75.1635 167.121 75.5411C166.842 75.9154 166.702 76.4297 166.702 77.084C166.702 77.7383 166.84 78.2543 167.117 78.6319C167.397 79.0062 167.779 79.1934 168.264 79.1934C168.743 79.1934 169.122 79.0046 169.402 78.627C169.682 78.2494 169.822 77.7351 169.822 77.084C169.822 76.4363 169.682 75.9236 169.402 75.546C169.122 75.1651 168.743 74.9747 168.264 74.9747ZM168.264 74.213C169.045 74.213 169.659 74.4669 170.105 74.9747C170.551 75.4825 170.774 76.1856 170.774 77.084C170.774 77.9792 170.551 78.6824 170.105 79.1934C169.659 79.7012 169.045 79.9551 168.264 79.9551C167.48 79.9551 166.864 79.7012 166.418 79.1934C165.976 78.6824 165.754 77.9792 165.754 77.084C165.754 76.1856 165.976 75.4825 166.418 74.9747C166.864 74.4669 167.48 74.213 168.264 74.213ZM176.467 75.1749V72.2159H177.365V79.8135H176.467V78.9932C176.278 79.3187 176.039 79.5613 175.749 79.7208C175.462 79.877 175.117 79.9551 174.714 79.9551C174.053 79.9551 173.514 79.6915 173.097 79.1641C172.684 78.6368 172.477 77.9434 172.477 77.084C172.477 76.2247 172.684 75.5313 173.097 75.004C173.514 74.4766 174.053 74.213 174.714 74.213C175.117 74.213 175.462 74.2927 175.749 74.4522C176.039 74.6085 176.278 74.8493 176.467 75.1749ZM173.405 77.084C173.405 77.7449 173.54 78.2641 173.81 78.6417C174.084 79.016 174.458 79.2032 174.933 79.2032C175.409 79.2032 175.783 79.016 176.056 78.6417C176.33 78.2641 176.467 77.7449 176.467 77.084C176.467 76.4232 176.33 75.9057 176.056 75.5313C175.783 75.1537 175.409 74.9649 174.933 74.9649C174.458 74.9649 174.084 75.1537 173.81 75.5313C173.54 75.9057 173.405 76.4232 173.405 77.084ZM179.723 77.6553V74.3448H180.621V77.6212C180.621 78.1387 180.722 78.5277 180.924 78.7881C181.126 79.0453 181.429 79.1739 181.832 79.1739C182.317 79.1739 182.7 79.0193 182.98 78.71C183.263 78.4008 183.404 77.9792 183.404 77.4454V74.3448H184.303V79.8135H183.404V78.9737C183.186 79.3057 182.932 79.5531 182.643 79.7159C182.356 79.8754 182.023 79.9551 181.642 79.9551C181.014 79.9551 180.537 79.7598 180.211 79.3692C179.886 78.9786 179.723 78.4073 179.723 77.6553ZM190.689 74.5547V75.3946C190.435 75.2546 190.18 75.1505 189.922 75.0821C189.669 75.0105 189.411 74.9747 189.151 74.9747C188.568 74.9747 188.116 75.1602 187.794 75.5313C187.471 75.8991 187.31 76.4167 187.31 77.084C187.31 77.7514 187.471 78.2706 187.794 78.6417C188.116 79.0095 188.568 79.1934 189.151 79.1934C189.411 79.1934 189.669 79.1592 189.922 79.0909C190.18 79.0193 190.435 78.9135 190.689 78.7735V79.6036C190.438 79.7208 190.178 79.8087 189.908 79.8672C189.641 79.9258 189.356 79.9551 189.053 79.9551C188.23 79.9551 187.575 79.6964 187.09 79.1788C186.605 78.6612 186.363 77.963 186.363 77.084C186.363 76.1921 186.607 75.4906 187.095 74.9796C187.587 74.4685 188.259 74.213 189.112 74.213C189.389 74.213 189.659 74.2422 189.922 74.3008C190.186 74.3562 190.442 74.4408 190.689 74.5547ZM193.74 72.7921V74.3448H195.591V75.043H193.74V78.0118C193.74 78.4577 193.8 78.7442 193.921 78.8712C194.045 78.9981 194.294 79.0616 194.668 79.0616H195.591V79.8135H194.668C193.975 79.8135 193.496 79.685 193.232 79.4278C192.969 79.1674 192.837 78.6954 192.837 78.0118V75.043H192.178V74.3448H192.837V72.7921H193.74ZM200.864 74.5059V75.3555C200.61 75.2253 200.346 75.1277 200.073 75.0626C199.799 74.9975 199.516 74.9649 199.223 74.9649C198.777 74.9649 198.442 75.0333 198.217 75.17C197.996 75.3067 197.885 75.5118 197.885 75.7852C197.885 75.9936 197.965 76.1579 198.124 76.2784C198.284 76.3956 198.605 76.5079 199.086 76.6153L199.394 76.6837C200.032 76.8204 200.484 77.0141 200.751 77.2647C201.022 77.5121 201.157 77.8588 201.157 78.3047C201.157 78.8126 200.955 79.2146 200.551 79.5108C200.151 79.807 199.599 79.9551 198.896 79.9551C198.603 79.9551 198.297 79.9258 197.978 79.8672C197.662 79.8119 197.329 79.7273 196.977 79.6133V78.6856C197.309 78.8581 197.636 78.9883 197.958 79.0762C198.281 79.1609 198.6 79.2032 198.915 79.2032C199.339 79.2032 199.664 79.1316 199.892 78.9883C200.12 78.8419 200.234 78.6368 200.234 78.3731C200.234 78.129 200.151 77.9418 199.985 77.8116C199.822 77.6814 199.462 77.5561 198.906 77.4356L198.593 77.3624C198.037 77.2452 197.635 77.0661 197.387 76.8253C197.14 76.5811 197.016 76.2475 197.016 75.8243C197.016 75.31 197.198 74.9128 197.563 74.6329C197.927 74.3529 198.445 74.213 199.116 74.213C199.448 74.213 199.76 74.2374 200.053 74.2862C200.346 74.335 200.616 74.4083 200.864 74.5059ZM207.864 72.7921V74.3448H209.715V75.043H207.864V78.0118C207.864 78.4577 207.925 78.7442 208.045 78.8712C208.169 78.9981 208.418 79.0616 208.792 79.0616H209.715V79.8135H208.792C208.099 79.8135 207.62 79.685 207.357 79.4278C207.093 79.1674 206.961 78.6954 206.961 78.0118V75.043H206.302V74.3448H206.961V72.7921H207.864ZM213.621 74.9747C213.139 74.9747 212.758 75.1635 212.478 75.5411C212.198 75.9154 212.058 76.4297 212.058 77.084C212.058 77.7383 212.197 78.2543 212.473 78.6319C212.753 79.0062 213.136 79.1934 213.621 79.1934C214.099 79.1934 214.478 79.0046 214.758 78.627C215.038 78.2494 215.178 77.7351 215.178 77.084C215.178 76.4363 215.038 75.9236 214.758 75.546C214.478 75.1651 214.099 74.9747 213.621 74.9747ZM213.621 74.213C214.402 74.213 215.016 74.4669 215.462 74.9747C215.907 75.4825 216.13 76.1856 216.13 77.084C216.13 77.9792 215.907 78.6824 215.462 79.1934C215.016 79.7012 214.402 79.9551 213.621 79.9551C212.836 79.9551 212.221 79.7012 211.775 79.1934C211.332 78.6824 211.111 77.9792 211.111 77.084C211.111 76.1856 211.332 75.4825 211.775 74.9747C212.221 74.4669 212.836 74.213 213.621 74.213ZM222.008 72.2159H222.907V79.8135H222.008V72.2159ZM225.391 74.3448H226.29V79.8135H225.391V74.3448ZM225.391 72.2159H226.29V73.3536H225.391V72.2159ZM231.543 72.2159V72.963H230.684C230.362 72.963 230.137 73.0281 230.01 73.1583C229.886 73.2885 229.824 73.5228 229.824 73.8614V74.3448H231.304V75.043H229.824V79.8135H228.921V75.043H228.062V74.3448H228.921V73.9639C228.921 73.3552 229.063 72.9125 229.346 72.6358C229.629 72.3559 230.078 72.2159 230.694 72.2159H231.543ZM237.578 76.8546V77.294H233.447C233.486 77.9125 233.671 78.3845 234.004 78.71C234.339 79.0323 234.804 79.1934 235.4 79.1934C235.745 79.1934 236.079 79.1511 236.401 79.0665C236.726 78.9818 237.049 78.8549 237.368 78.6856V79.5352C237.046 79.6719 236.715 79.7761 236.377 79.8477C236.038 79.9193 235.695 79.9551 235.346 79.9551C234.474 79.9551 233.782 79.7012 233.271 79.1934C232.763 78.6856 232.509 77.9988 232.509 77.1329C232.509 76.2377 232.75 75.5281 233.232 75.004C233.717 74.4766 234.37 74.213 235.19 74.213C235.926 74.213 236.507 74.4506 236.933 74.9258C237.363 75.3978 237.578 76.0408 237.578 76.8546ZM236.679 76.5909C236.673 76.0993 236.534 75.7071 236.264 75.4141C235.997 75.1212 235.643 74.9747 235.2 74.9747C234.698 74.9747 234.296 75.1163 233.994 75.3995C233.694 75.6827 233.522 76.0814 233.476 76.5958L236.679 76.5909Z" fill="#1B345C"/>
</svg>
